<svg width="128" height="128" fill="none" xmlns="http://www.w3.org/2000/svg"><g clip-path="url(#a)"><path d="M128 64c0 35.346-28.654 64-64 64-35.346 0-64-28.654-64-64C0 28.654 28.654 0 64 0c35.346 0 64 28.654 64 64z" fill="#FFCC4D"/><path d="M64 74.667c-12.882 0-21.43-1.5-32-3.555-2.414-.466-7.111 0-7.111 7.11 0 14.223 16.337 32.001 39.11 32.001 22.77 0 39.112-17.778 39.112-32 0-7.111-4.697-7.58-7.111-7.111-10.57 2.055-19.118 3.555-32 3.555z" fill="#664500"/><path d="M32 78.223s10.667 3.555 32 3.555 32-3.555 32-3.555-7.111 14.222-32 14.222-32-14.222-32-14.222z" fill="#fff"/><path d="M55.758 15.69 39.61 18.54 31.29 3.417a4.448 4.448 0 0 0-8.288 1.461l-2.649 17.056-16.15 2.848a4.445 4.445 0 0 0-1.13 8.395l14.471 6.87-2.66 17.109a4.454 4.454 0 0 0 2.394 4.654 4.449 4.449 0 0 0 5.166-.85L34.93 48.3l16.064 7.626a4.443 4.443 0 0 0 5.8-6.155l-8.35-15.174 11.254-11.407a4.45 4.45 0 0 0 .771-5.187 4.468 4.468 0 0 0-4.71-2.311zm16.484 0 16.15 2.849 8.32-15.122a4.453 4.453 0 0 1 4.664-2.233 4.45 4.45 0 0 1 3.62 3.694l2.649 17.056 16.149 2.848a4.433 4.433 0 0 1 3.63 3.78 4.45 4.45 0 0 1-2.499 4.611l-14.471 6.87 2.659 17.11a4.454 4.454 0 0 1-2.393 4.653 4.449 4.449 0 0 1-5.166-.85l-12.487-12.66-16.064 7.626a4.443 4.443 0 0 1-5.8-6.155l8.35-15.171-11.254-11.407a4.45 4.45 0 0 1-.772-5.187 4.475 4.475 0 0 1 4.715-2.311z" fill="#E95F28"/></g><defs><clipPath id="a"><path fill="#fff" d="M0 0h128v128H0z"/></clipPath></defs></svg>