<svg width="128" height="128" fill="none" xmlns="http://www.w3.org/2000/svg"><g clip-path="url(#a)"><path d="M128 64c0 35.346-28.654 64-64 64-35.346 0-64-28.654-64-64C0 28.654 28.654 0 64 0c35.346 0 64 28.654 64 64z" fill="#FFCC4D"/><path d="M78.223 96c0 9.824-6.368 10.666-14.223 10.666-7.857 0-14.222-.842-14.222-10.666 0-9.817 6.365-21.334 14.222-21.334 7.855 0 14.223 11.517 14.223 21.334zm28.444-42.667c-.441 0-.889-.082-1.319-.256-18.592-7.435-26.212-18.635-26.528-19.108a3.552 3.552 0 0 1 .985-4.931 3.553 3.553 0 0 1 4.924.974c.068.096 6.862 9.902 23.257 16.459a3.558 3.558 0 0 1-1.319 6.862zm-85.333 0a3.555 3.555 0 0 1-1.323-6.859c16.398-6.556 23.193-16.362 23.26-16.458a3.562 3.562 0 0 1 4.932-.96 3.549 3.549 0 0 1 .978 4.917c-.317.473-7.936 11.673-26.525 19.107-.433.171-.881.253-1.322.253z" fill="#664500"/><path d="M85.333 56.889h14.222v67.555l-14.222-.163V56.889zm-56.889 67.555 14.223-.163V56.889H28.444v67.555z" fill="#5DADEC"/><path d="M53.33 64c-.533 0-1.078-.121-1.586-.373-12.487-6.244-25.138-.064-25.262 0a3.553 3.553 0 0 1-4.772-1.59 3.557 3.557 0 0 1 1.59-4.771c.647-.32 15.992-7.812 31.626 0a3.557 3.557 0 0 1 1.59 4.771A3.561 3.561 0 0 1 53.33 64zm49.778 0c-.534 0-1.078-.121-1.586-.373-12.49-6.244-25.138-.064-25.262 0a3.557 3.557 0 0 1-3.182-6.36c.647-.321 16.003-7.81 31.626-.001A3.555 3.555 0 0 1 103.108 64z" fill="#664500"/><path d="M64 128c35.346 0 64-3.184 64-7.112 0-3.927-28.654-7.111-64-7.111-35.346 0-64 3.184-64 7.111C0 124.816 28.654 128 64 128z" fill="#5DADEC"/><path d="M64 103.111c5.89 0 10.666-3.184 10.666-7.111 0-3.928-4.775-7.111-10.666-7.111s-10.667 3.183-10.667 7.11c0 3.928 4.776 7.112 10.667 7.112z" fill="#E75A70"/></g><defs><clipPath id="a"><path fill="#fff" d="M0 0h128v128H0z"/></clipPath></defs></svg>