<svg width="128" height="128" fill="none" xmlns="http://www.w3.org/2000/svg"><g clip-path="url(#a)"><path d="M64 128c35.346 0 64-28.654 64-64 0-35.346-28.654-64-64-64C28.654 0 0 28.654 0 64c0 35.346 28.654 64 64 64z" fill="#FFCC4D"/><path d="M90.614 97.347c-.16-.636-4.153-15.57-26.614-15.57-22.464 0-26.453 14.934-26.613 15.57a1.773 1.773 0 0 0 .843 1.97c.693.395 1.56.277 2.133-.274.068-.067 6.947-6.599 23.637-6.599s23.574 6.532 23.638 6.596a1.784 1.784 0 0 0 2.126.288 1.78 1.78 0 0 0 .85-1.98zM42.666 60.445c4.91 0 8.89-5.572 8.89-12.445s-3.98-12.444-8.89-12.444c-4.909 0-8.889 5.571-8.889 12.444 0 6.873 3.98 12.445 8.89 12.445zM85.333 60.445c4.91 0 8.89-5.572 8.89-12.445s-3.98-12.444-8.89-12.444c-4.909 0-8.889 5.571-8.889 12.444 0 6.873 3.98 12.445 8.89 12.445z" fill="#664500"/></g><defs><clipPath id="a"><path fill="#fff" d="M0 0h128v128H0z"/></clipPath></defs></svg>