<svg width="437" height="357" fill="none" xmlns="http://www.w3.org/2000/svg"><rect x="59.969" y="287.546" width="12.922" height="43.626" rx="6.461" transform="rotate(-124.049 59.969 287.546)" fill="url(#a)"/><rect x="91.248" y="169.716" width="6.446" height="30.618" rx="3.223" transform="rotate(132.891 91.248 169.716)" fill="url(#b)"/><rect x="269.545" y="286.968" width="14.462" height="92.413" rx="7.231" transform="rotate(-38.611 269.545 286.968)" fill="url(#c)"/><rect x="-5" y="13.094" width="27.029" height="160.34" rx="13.514" transform="rotate(-42.023 -5 13.094)" fill="url(#d)"/><rect opacity=".5" x="142.645" y="284.773" width="12.519" height="25.292" rx="6.26" transform="rotate(31.48 142.645 284.773)" fill="url(#e)"/><rect opacity=".5" x="220.996" y="289.98" width="5.965" height="24.931" rx="2.983" transform="rotate(-20.587 220.996 289.98)" fill="url(#f)"/><rect x="437.541" y="237.594" width="14.916" height="160.934" rx="7.458" transform="rotate(99.728 437.541 237.594)" fill="url(#g)"/><rect opacity=".4" x="300.535" y="153.013" width="7.535" height="19.566" rx="3.767" transform="rotate(54.315 300.535 153.013)" fill="url(#h)"/><rect x="287.663" y="42.248" width="19.021" height="64.294" rx="9.511" transform="rotate(36.745 287.663 42.248)" fill="url(#i)"/><rect x="75.121" y="210.731" width="7.872" height="27.043" rx="3.936" transform="rotate(98.66 75.121 210.731)" fill="url(#j)"/><rect opacity=".4" x="161.43" y="60.727" width="13.944" height="39.864" rx="6.972" transform="rotate(-11.223 161.43 60.727)" fill="url(#k)"/><g filter="url(#l)"><rect x="99" y="111" width="172" height="172" rx="86" fill="url(#m)"/></g><g clip-path="url(#n)"><path d="M217.913 190.833c0-1.006-.24-1.95-.642-2.808-2.682-8.652-15.238-8.02-33.098-8.442-2.986-.07-1.278-3.596-.23-11.336.682-5.034-2.564-12.764-8.02-12.764-8.996 0-.342 7.096-8.296 24.644-4.25 9.376-13.75 4.124-13.75 13.542v21.438c0 3.666.36 7.19 5.516 7.77 4.998.562 3.874 4.124 11.084 4.124h36.088c3.676 0 6.666-2.992 6.666-6.668 0-1.524-.534-2.912-1.396-4.036 2.04-1.142 3.44-3.298 3.44-5.798 0-1.52-.532-2.908-1.392-4.03 2.046-1.14 3.45-3.298 3.45-5.802a6.646 6.646 0 0 0-1.922-4.672c1.514-1.222 2.502-3.07 2.502-5.162z" fill="#EAD4B3"/><path d="M194.039 197.498h17.208a6.698 6.698 0 0 0 5.732-3.266 1.751 1.751 0 0 0-3.012-1.784 3.175 3.175 0 0 1-2.722 1.55h-17.62a3.17 3.17 0 0 1-3.166-3.166 3.17 3.17 0 0 1 3.166-3.166h11.774a1.75 1.75 0 0 0 0-3.5h-11.776a6.673 6.673 0 0 0-6.666 6.666c0 2.05.95 3.864 2.41 5.088a6.641 6.641 0 0 0-1.996 4.746c0 2.056.956 3.876 2.424 5.098a6.635 6.635 0 0 0-1.98 4.734c0 2.24 1.118 4.216 2.818 5.426-1.048 1.178-1.704 2.712-1.704 4.408a6.673 6.673 0 0 0 6.666 6.666h10.968a6.7 6.7 0 0 0 5.734-3.264 1.75 1.75 0 0 0-3.008-1.788 3.189 3.189 0 0 1-2.726 1.552h-10.968a3.17 3.17 0 0 1-3.166-3.166 3.17 3.17 0 0 1 3.166-3.166h13.012c2.34 0 4.54-1.252 5.734-3.266a1.75 1.75 0 0 0-.61-2.398 1.74 1.74 0 0 0-2.398.61 3.144 3.144 0 0 1-2.726 1.554h-14.126a3.171 3.171 0 0 1-3.166-3.168 3.17 3.17 0 0 1 3.166-3.166h16.182a6.7 6.7 0 0 0 5.734-3.264 1.75 1.75 0 0 0-3.008-1.788 3.146 3.146 0 0 1-2.726 1.552h-16.624a3.17 3.17 0 0 1-3.166-3.166 3.17 3.17 0 0 1 3.166-3.168z" fill="#DAA77D"/></g><defs><linearGradient id="a" x1="66.43" y1="287.546" x2="66.43" y2="331.172" gradientUnits="userSpaceOnUse"><stop offset="0" stop-color="#FF8606"/><stop offset="1" stop-color="#FFB01C"/></linearGradient><linearGradient id="g" x1="444.999" y1="237.594" x2="444.999" y2="398.528" gradientUnits="userSpaceOnUse"><stop offset="0" stop-color="#FF8606"/><stop offset="1" stop-color="#FFB01C"/></linearGradient><linearGradient id="c" x1="276.776" y1="286.968" x2="276.776" y2="379.381" gradientUnits="userSpaceOnUse"><stop stop-color="#FFB01C"/><stop offset="1" stop-color="#FF8606"/></linearGradient><linearGradient id="d" x1="8.514" y1="13.094" x2="8.514" y2="173.434" gradientUnits="userSpaceOnUse"><stop offset="0" stop-color="#FF8606"/><stop offset="1" stop-color="#FFB01C"/></linearGradient><linearGradient id="e" x1="148.904" y1="284.773" x2="148.904" y2="310.065" gradientUnits="userSpaceOnUse"><stop stop-color="#FFB01C"/><stop offset="1" stop-color="#FF8606"/></linearGradient><linearGradient id="f" x1="223.979" y1="289.98" x2="223.979" y2="314.911" gradientUnits="userSpaceOnUse"><stop stop-color="#FFB01C"/><stop offset="1" stop-color="#FF8606"/></linearGradient><linearGradient id="b" x1="94.471" y1="169.716" x2="94.471" y2="200.334" gradientUnits="userSpaceOnUse"><stop stop-color="#FFB01C"/><stop offset="1" stop-color="#FF8606"/></linearGradient><linearGradient id="h" x1="304.303" y1="153.013" x2="304.303" y2="172.579" gradientUnits="userSpaceOnUse"><stop offset="0" stop-color="#FF8606"/><stop offset="1" stop-color="#FFB01C"/></linearGradient><linearGradient id="i" x1="297.174" y1="42.248" x2="297.174" y2="106.542" gradientUnits="userSpaceOnUse"><stop offset="0" stop-color="#FF8606"/><stop offset="1" stop-color="#FFB01C"/></linearGradient><linearGradient id="j" x1="79.057" y1="210.731" x2="79.057" y2="237.774" gradientUnits="userSpaceOnUse"><stop stop-color="#FFB01C"/><stop offset="1" stop-color="#FF8606"/></linearGradient><linearGradient id="k" x1="168.402" y1="60.727" x2="168.402" y2="100.59" gradientUnits="userSpaceOnUse"><stop offset="0" stop-color="#FF8606"/><stop offset="1" stop-color="#FFB01C"/></linearGradient><linearGradient id="m" x1="185" y1="111" x2="185" y2="283" gradientUnits="userSpaceOnUse"><stop stop-color="#FF8606"/><stop offset="1" stop-color="#FFB11C"/></linearGradient><clipPath id="n"><path fill="#fff" transform="translate(148 155)" d="M0 0h72v72H0z"/></clipPath><filter id="l" x="51.452" y="67.256" width="267.097" height="267.097" filterUnits="userSpaceOnUse" color-interpolation-filters="sRGB"><feFlood flood-opacity="0" result="BackgroundImageFix"/><feColorMatrix in="SourceAlpha" values="0 0 0 0 0 0 0 0 0 0 0 0 0 0 0 0 0 0 127 0" result="hardAlpha"/><feOffset dy="3.804"/><feGaussianBlur stdDeviation="23.774"/><feColorMatrix values="0 0 0 0 0.395833 0 0 0 0 0.395833 0 0 0 0 0.395833 0 0 0 0.1 0"/><feBlend in2="BackgroundImageFix" result="effect1_dropShadow_2725_45017"/><feBlend in="SourceGraphic" in2="effect1_dropShadow_2725_45017" result="shape"/></filter></defs></svg>