<svg width="128" height="128" fill="none" xmlns="http://www.w3.org/2000/svg"><path d="M64 120.953c33.383 0 60.445-27.062 60.445-60.444C124.445 27.126 97.383.064 64 .064 30.618.064 3.556 27.126 3.556 60.51c0 33.382 27.062 60.444 60.444 60.444z" fill="#FFCB4C"/><path d="M51.64 74.794a3.25 3.25 0 0 1-1.109-1.65c-.476-1.635.462-3.264 2.098-3.63 16.1-3.63 26.94 4.847 27.4 5.21 1.364 1.087 1.631 3.004.614 4.284-1.017 1.273-2.944 1.425-4.306.345-.39-.3-8.97-6.838-21.98-3.904-.974.216-1.97-.057-2.716-.655zM46.645 49.173c4.173 0 7.556-4.228 7.556-9.443 0-5.216-3.383-9.444-7.556-9.444-4.172 0-7.555 4.228-7.555 9.444 0 5.215 3.383 9.443 7.555 9.443zM86.667 52.95c4.173 0 7.555-4.228 7.555-9.444 0-5.215-3.382-9.444-7.555-9.444s-7.556 4.229-7.556 9.444c0 5.216 3.383 9.444 7.556 9.444z" fill="#65471B"/><path d="M61.426 124.974s4.498-1.462 5.081-4.807c.615-3.456-2.219-4.15-2.219-4.15s3.702-.739 4.168-4.892c.437-3.915-3.062-4.846-3.062-4.846s3.449-1.423 3.613-5.472c.135-3.41-3.538-5.078-3.538-5.078s17.913-4.341 19.755-4.768c1.834-.426 4.693-2.186 3.8-6.023-.885-3.84-4.28-3.975-6.033-3.566-1.757.409-23.98 5.568-31.645 7.353l-5.116 1.187c-1.92.452-2.791-.39-1.437-1.82 1.806-1.906 2.962-4.014 3.364-7.513.423-3.68-.825-8.224-1.54-9.987-1.33-3.275-3.573-5.864-6.165-6.752-4.043-1.387-6.916 1.14-5.483 5.55 2.148 6.592.74 12-2.962 15.264-8.707 7.67-12.757 13.138-10.062 24.793 2.944 12.711 15.563 20.892 28.274 17.948l11.207-2.421z" fill="#F19020"/><path d="M33.052 22.582a3.288 3.288 0 0 1-1.39-1.419c-.768-1.522-.142-3.296 1.398-3.954 15.167-6.51 27.374-.153 27.886.121 1.54.821 2.162 2.656 1.39 4.103-.768 1.44-2.631 1.942-4.17 1.13-.438-.223-10.07-5.09-22.322.168-.914.388-1.945.302-2.792-.15zM76.2 35.915a3.286 3.286 0 0 1-1.287-1.508c-.665-1.571.082-3.296 1.664-3.854 15.577-5.461 27.324 1.707 27.815 2.016 1.476.925 1.973 2.798 1.109 4.189-.86 1.386-2.759 1.76-4.234.846-.427-.256-9.696-5.764-22.283-1.348-.946.324-1.966.164-2.784-.341z" fill="#65471B"/></svg>