<svg width="128" height="128" fill="none" xmlns="http://www.w3.org/2000/svg"><g clip-path="url(#a)"><path d="M128 64c0 35.346-28.654 64-64 64-35.342 0-64-28.654-64-64C0 28.658 28.658 0 64 0c35.346 0 64 28.658 64 64z" fill="#FFCC4D"/><path d="M40.889 71.112c4.91 0 8.889-5.572 8.889-12.445s-3.98-12.444-8.89-12.444C35.98 46.223 32 51.794 32 58.667c0 6.873 3.98 12.445 8.889 12.445zM87.112 71.112C92.02 71.112 96 65.54 96 58.667s-3.98-12.444-8.888-12.444c-4.91 0-8.89 5.571-8.89 12.444 0 6.873 3.98 12.445 8.89 12.445zM88.889 92.444H39.111a3.555 3.555 0 0 1-3.555-3.555 3.555 3.555 0 0 1 3.555-3.556H88.89a3.552 3.552 0 0 1 3.556 3.556 3.552 3.552 0 0 1-3.556 3.555z" fill="#664500"/></g><defs><clipPath id="a"><path fill="#fff" d="M0 0h128v128H0z"/></clipPath></defs></svg>